{
  "accessors": [
    {
      "bufferView": 2,
      "componentType": 5126,
      "count": 31162,
      "max": [
        0.24641311168670654,
        2.261864295860505e-08,
        0.25927552580833435
      ],
      "min": [
        -0.25288495421409607,
        -0.04000002518296242,
        -0.24107491970062256
      ],
      "type": "VEC3"
    },
    {
      "bufferView": 2,
      "byteOffset": 373944,
      "componentType": 5126,
      "count": 31162,
      "max": [
        1.0,
        1.0,
        1.0
      ],
      "min": [
        -1.0,
        -1.0,
        -1.0
      ],
      "type": "VEC3"
    },
    {
      "bufferView": 1,
      "componentType": 5126,
      "count": 31162,
      "max": [
        1.0000011920928955,
        1.0
      ],
      "min": [
        0.0,
        1.0
      ],
      "type": "VEC2"
    },
    {
      "bufferView": 0,
      "componentType": 5125,
      "count": 94356,
      "type": "SCALAR"
    }
  ],
  "asset": {
    "extras": {
      "author": "maherqassem87 (https://sketchfab.com/maherqassem87)",
      "license": "SKETCHFAB Standard (https://sketchfab.com/licenses)",
      "source": "https://sketchfab.com/3d-models/email-address-icon-3d-model-red-mail-symbol-927c6c8411c54baea6e1bc0115bee9f9",
      "title": "Email Address Icon 3D Model | Red Mail Symbol"
    },
    "generator": "Sketchfab-16.82.0",
    "version": "2.0"
  },
  "bufferViews": [
    {
      "buffer": 0,
      "byteLength": 377424,
      "name": "floatBufferViews",
      "target": 34963
    },
    {
      "buffer": 0,
      "byteLength": 249296,
      "byteOffset": 377424,
      "byteStride": 8,
      "name": "floatBufferViews",
      "target": 34962
    },
    {
      "buffer": 0,
      "byteLength": 747888,
      "byteOffset": 626720,
      "byteStride": 12,
      "name": "floatBufferViews",
      "target": 34962
    }
  ],
  "buffers": [
    {
      "byteLength": 1374608,
      "uri": "scene.bin"
    }
  ],
  "materials": [
    {
      "doubleSided": true,
      "name": "SVGMat",
      "pbrMetallicRoughness": {
        "baseColorFactor": [
          0.849488,
          0.0,
          0.00541358,
          1.0
        ],
        "metallicFactor": 0.0,
        "roughnessFactor": 0.4
      }
    }
  ],
  "meshes": [
    {
      "name": "Object_0",
      "primitives": [
        {
          "attributes": {
            "NORMAL": 1,
            "POSITION": 0,
            "TEXCOORD_0": 2
          },
          "indices": 3,
          "material": 0,
          "mode": 4
        }
      ]
    }
  ],
  "nodes": [
    {
      "children": [
        1
      ],
      "matrix": [
        1.0,
        0.0,
        0.0,
        0.0,
        0.0,
        2.220446049250313e-16,
        -1.0,
        0.0,
        0.0,
        1.0,
        2.220446049250313e-16,
        0.0,
        0.0,
        0.0,
        0.0,
        1.0
      ],
      "name": "Sketchfab_model"
    },
    {
      "children": [
        2
      ],
      "name": "root"
    },
    {
      "children": [
        3
      ],
      "matrix": [
        1.0,
        0.0,
        0.0,
        0.0,
        0.0,
        2.220446049250313e-16,
        1.0,
        0.0,
        0.0,
        -1.0,
        2.220446049250313e-16,
        0.0,
        0.0,
        0.0,
        0.0,
        1.0
      ],
      "name": "GLTF_SceneRootNode"
    },
    {
      "children": [
        4
      ],
      "matrix": [
        5.031379699707031,
        0.0,
        0.0,
        0.0,
        0.0,
        0.0,
        5.031379699707031,
        0.0,
        0.0,
        -5.031379699707031,
        0.0,
        0.0,
        1.27236008644104,
        1.2746059894561768,
        -1.3045477867126465,
        1.0
      ],
      "name": "Curve.001_0"
    },
    {
      "mesh": 0,
      "name": "Object_4"
    }
  ],
  "scene": 0,
  "scenes": [
    {
      "name": "Sketchfab_Scene",
      "nodes": [
        0
      ]
    }
  ]
}
